<svg xmlns="http://www.w3.org/2000/svg" viewBox="0 0 512 512">
  <!-- Ícone da aplicação TripNexus (full-bleed, para PWA/maskable) -->
  <defs>
    <linearGradient id="bg" x1="0" y1="0" x2="1" y2="1">
      <stop offset="0" stop-color="#232a6b"/>
      <stop offset="1" stop-color="#161938"/>
    </linearGradient>
    <linearGradient id="em" x1="0" y1="0" x2="1" y2="0">
      <stop offset="0" stop-color="#4da3f5"/>
      <stop offset=".5" stop-color="#2f9bd0"/>
      <stop offset="1" stop-color="#2cc9b4"/>
    </linearGradient>
  </defs>
  <rect width="512" height="512" fill="url(#bg)"/>
  <g transform="translate(106 106) scale(3)">
    <g fill="none" stroke="url(#em)" stroke-width="6" stroke-linecap="round">
      <circle cx="50" cy="50" r="41"/>
      <path d="M12 50 Q50 27 88 50"/>
      <path d="M12 50 Q50 73 88 50"/>
    </g>
    <g fill="none" stroke="#0f1330" stroke-width="13" stroke-linecap="round" stroke-linejoin="round">
      <path d="M17 17 L41 41 M41 28 L41 41 L28 41"/>
      <path d="M83 17 L59 41 M59 28 L59 41 L72 41"/>
      <path d="M17 83 L41 59 M41 72 L41 59 L28 59"/>
      <path d="M83 83 L59 59 M59 72 L59 59 L72 59"/>
    </g>
    <g fill="none" stroke="url(#em)" stroke-width="6.5" stroke-linecap="round" stroke-linejoin="round">
      <path d="M17 17 L41 41 M41 28 L41 41 L28 41"/>
      <path d="M83 17 L59 41 M59 28 L59 41 L72 41"/>
      <path d="M17 83 L41 59 M41 72 L41 59 L28 59"/>
      <path d="M83 83 L59 59 M59 72 L59 59 L72 59"/>
    </g>
  </g>
</svg>
