<svg xmlns="http://www.w3.org/2000/svg" viewBox="0 0 100 100">
  <!-- Favicon TripNexus: apenas o ícone, sobre azulejo branco -->
  <defs>
    <linearGradient id="gf" x1="0" y1="0" x2="1" y2="0">
      <stop offset="0" stop-color="#1e78d8"/>
      <stop offset=".45" stop-color="#1b66cb"/>
      <stop offset=".55" stop-color="#159d92"/>
      <stop offset="1" stop-color="#1fb3a2"/>
    </linearGradient>
  </defs>
  <rect width="100" height="100" rx="22" fill="#ffffff"/>
  <g transform="translate(50 50) scale(.86) translate(-50 -50)">
    <g fill="none" stroke="url(#gf)" stroke-width="6" stroke-linecap="round">
      <circle cx="50" cy="50" r="41"/>
      <path d="M12 50 Q50 27 88 50"/>
      <path d="M12 50 Q50 73 88 50"/>
    </g>
    <g fill="none" stroke="#ffffff" stroke-width="13" stroke-linecap="round" stroke-linejoin="round">
      <path d="M17 17 L41 41 M41 28 L41 41 L28 41"/>
      <path d="M83 17 L59 41 M59 28 L59 41 L72 41"/>
      <path d="M17 83 L41 59 M41 72 L41 59 L28 59"/>
      <path d="M83 83 L59 59 M59 72 L59 59 L72 59"/>
    </g>
    <g fill="none" stroke="url(#gf)" stroke-width="6.5" stroke-linecap="round" stroke-linejoin="round">
      <path d="M17 17 L41 41 M41 28 L41 41 L28 41"/>
      <path d="M83 17 L59 41 M59 28 L59 41 L72 41"/>
      <path d="M17 83 L41 59 M41 72 L41 59 L28 59"/>
      <path d="M83 83 L59 59 M59 72 L59 59 L72 59"/>
    </g>
  </g>
</svg>
