<svg xmlns="http://www.w3.org/2000/svg" viewBox="0 0 1200 630">
  <defs>
    <linearGradient id="bg" x1="0" y1="0" x2="1" y2="1">
      <stop offset="0" stop-color="#161938"/>
      <stop offset=".55" stop-color="#232a6b"/>
      <stop offset="1" stop-color="#31379b"/>
    </linearGradient>
    <linearGradient id="em" x1="0" y1="0" x2="1" y2="0">
      <stop offset="0" stop-color="#4da3f5"/>
      <stop offset=".5" stop-color="#2f9bd0"/>
      <stop offset="1" stop-color="#2cc9b4"/>
    </linearGradient>
  </defs>
  <rect width="1200" height="630" fill="url(#bg)"/>
  <circle cx="1010" cy="120" r="260" fill="#4353ff" opacity=".18"/>
  <circle cx="150" cy="560" r="220" fill="#2cc9b4" opacity=".14"/>
  <g transform="translate(96 175) scale(2.8)">
    <g fill="none" stroke="url(#em)" stroke-width="6" stroke-linecap="round">
      <circle cx="50" cy="50" r="41"/>
      <path d="M12 50 Q50 27 88 50"/>
      <path d="M12 50 Q50 73 88 50"/>
    </g>
    <g fill="none" stroke="#161938" stroke-width="13" stroke-linecap="round" stroke-linejoin="round">
      <path d="M17 17 L41 41 M41 28 L41 41 L28 41"/><path d="M83 17 L59 41 M59 28 L59 41 L72 41"/>
      <path d="M17 83 L41 59 M41 72 L41 59 L28 59"/><path d="M83 83 L59 59 M59 72 L59 59 L72 59"/>
    </g>
    <g fill="none" stroke="url(#em)" stroke-width="6.5" stroke-linecap="round" stroke-linejoin="round">
      <path d="M17 17 L41 41 M41 28 L41 41 L28 41"/><path d="M83 17 L59 41 M59 28 L59 41 L72 41"/>
      <path d="M17 83 L41 59 M41 72 L41 59 L28 59"/><path d="M83 83 L59 59 M59 72 L59 59 L72 59"/>
    </g>
  </g>
  <text x="420" y="250" font-family="'Segoe UI',Roboto,sans-serif" font-size="86" font-weight="800" fill="#ffffff">Trip<tspan fill="#2cc9b4">Nexus</tspan></text>
  <text x="424" y="330" font-family="'Segoe UI',Roboto,sans-serif" font-size="40" font-weight="600" fill="#c9cdf0">Comparador de viagens</text>
  <text x="424" y="428" font-family="'Segoe UI',Roboto,sans-serif" font-size="31" fill="#aab0d8">Voos, alojamento, carros e transportes</text>
  <text x="424" y="474" font-family="'Segoe UI',Roboto,sans-serif" font-size="31" fill="#aab0d8">em mais de 24 sites, ao melhor preço.</text>
  <g font-family="'Segoe UI',Roboto,sans-serif" font-size="26" font-weight="700" fill="#ffffff">
    <rect x="424" y="516" width="230" height="54" rx="27" fill="#ff5a5f"/><text x="459" y="551">🔍 Pesquisar já</text>
  </g>
</svg>
